<svg width="1653" height="993" xmlns="http://www.w3.org/2000/svg" xmlns:xlink="http://www.w3.org/1999/xlink" overflow="hidden"><defs><clipPath id="clip0"><rect x="735" y="-1" width="1653" height="993"/></clipPath><clipPath id="clip1"><rect x="735" y="0" width="1650" height="990"/></clipPath><clipPath id="clip2"><rect x="735" y="0" width="1650" height="990"/></clipPath><clipPath id="clip3"><rect x="845" y="50" width="1493" height="732"/></clipPath><clipPath id="clip4"><rect x="845" y="50" width="1493" height="732"/></clipPath><clipPath id="clip5"><rect x="735" y="0" width="1650" height="990"/></clipPath><clipPath id="clip6"><rect x="735" y="0" width="1650" height="990"/></clipPath><clipPath id="clip7"><rect x="735" y="0" width="1650" height="990"/></clipPath><clipPath id="clip8"><rect x="735" y="0" width="1650" height="990"/></clipPath><clipPath id="clip9"><rect x="735" y="0" width="1650" height="990"/></clipPath><clipPath id="clip10"><rect x="735" y="0" width="1650" height="990"/></clipPath><clipPath id="clip11"><rect x="735" y="0" width="1650" height="990"/></clipPath><clipPath id="clip12"><rect x="735" y="0" width="1650" height="990"/></clipPath><clipPath id="clip13"><rect x="735" y="0" width="1650" height="990"/></clipPath><clipPath id="clip14"><rect x="735" y="0" width="1650" height="990"/></clipPath><clipPath id="clip15"><rect x="735" y="0" width="1650" height="990"/></clipPath><clipPath id="clip16"><rect x="735" y="0" width="1650" height="990"/></clipPath><clipPath id="clip17"><rect x="735" y="0" width="1650" height="990"/></clipPath><clipPath id="clip18"><rect x="735" y="0" width="1650" height="990"/></clipPath><clipPath id="clip19"><rect x="735" y="0" width="1650" height="990"/></clipPath><clipPath id="clip20"><rect x="735" y="0" width="1650" height="990"/></clipPath><clipPath id="clip21"><rect x="735" y="0" width="1650" height="990"/></clipPath><clipPath id="clip22"><rect x="735" y="0" width="1650" height="990"/></clipPath></defs><g clip-path="url(#clip0)" transform="translate(-735 1)"><rect x="736" y="0" width="1650" height="990" fill="#FFFFFF"/><g clip-path="url(#clip1)"><path d="M845.5 657.522 2335.5 657.522M845.5 536.518 2335.5 536.518M845.5 414.514 2335.5 414.514M845.5 293.51 2335.5 293.51M845.5 171.506 2335.5 171.506M845.5 50.5 2335.5 50.5" stroke="#D9D9D9" stroke-width="3.4375" stroke-linejoin="round" stroke-miterlimit="10" fill="none"/></g><g clip-path="url(#clip2)"><path d="M845.5 778.5 2335.5 778.5" stroke="#D9D9D9" stroke-width="3.4375" stroke-linejoin="round" stroke-miterlimit="10" fill="none" fill-rule="evenodd"/></g><g clip-path="url(#clip3)"><path d="M952 344.011 1165.04 286 1377.05 368.012 1590.05 371 1803.06 344.011 2016.07 334.011 2229 327.011" stroke="#4472C4" stroke-width="10.3125" stroke-linecap="round" stroke-linejoin="round" stroke-miterlimit="10" fill="none"/></g><g clip-path="url(#clip4)"><path d="M952 138 1165.04 167.005 1377.05 218 1590.05 152.005 1803.06 169.006 2016.07 182.006 2229 182.006" stroke="#ED7D31" stroke-width="10.3125" stroke-linecap="round" stroke-linejoin="round" stroke-miterlimit="10" fill="none"/></g><g clip-path="url(#clip5)"><text fill="#595959" font-family="Calibri,Calibri_MSFontService,sans-serif" font-weight="400" font-size="41" transform="matrix(1 0 0 1 786.317 790)">0</text></g><g clip-path="url(#clip6)"><text fill="#595959" font-family="Calibri,Calibri_MSFontService,sans-serif" font-weight="400" font-size="41" transform="matrix(1 0 0 1 786.317 669)">5</text></g><g clip-path="url(#clip7)"><text fill="#595959" font-family="Calibri,Calibri_MSFontService,sans-serif" font-weight="400" font-size="41" transform="matrix(1 0 0 1 765.417 548)">10</text></g><g clip-path="url(#clip8)"><text fill="#595959" font-family="Calibri,Calibri_MSFontService,sans-serif" font-weight="400" font-size="41" transform="matrix(1 0 0 1 765.417 426)">15</text></g><g clip-path="url(#clip9)"><text fill="#595959" font-family="Calibri,Calibri_MSFontService,sans-serif" font-weight="400" font-size="41" transform="matrix(1 0 0 1 765.417 305)">20</text></g><g clip-path="url(#clip10)"><text fill="#595959" font-family="Calibri,Calibri_MSFontService,sans-serif" font-weight="400" font-size="41" transform="matrix(1 0 0 1 765.417 183)">25</text></g><g clip-path="url(#clip11)"><text fill="#595959" font-family="Calibri,Calibri_MSFontService,sans-serif" font-weight="400" font-size="41" transform="matrix(1 0 0 1 765.417 62)">30</text></g><g clip-path="url(#clip12)"><text fill="#595959" font-family="Calibri,Calibri_MSFontService,sans-serif" font-weight="400" font-size="41" transform="matrix(1 0 0 1 930.992 844)">25</text></g><g clip-path="url(#clip13)"><text fill="#595959" font-family="Calibri,Calibri_MSFontService,sans-serif" font-weight="400" font-size="41" transform="matrix(1 0 0 1 1143.81 844)">26</text></g><g clip-path="url(#clip14)"><text fill="#595959" font-family="Calibri,Calibri_MSFontService,sans-serif" font-weight="400" font-size="41" transform="matrix(1 0 0 1 1356.63 844)">27</text></g><g clip-path="url(#clip15)"><text fill="#595959" font-family="Calibri,Calibri_MSFontService,sans-serif" font-weight="400" font-size="41" transform="matrix(1 0 0 1 1569.45 844)">28</text></g><g clip-path="url(#clip16)"><text fill="#595959" font-family="Calibri,Calibri_MSFontService,sans-serif" font-weight="400" font-size="41" transform="matrix(1 0 0 1 1782.26 844)">29</text></g><g clip-path="url(#clip17)"><text fill="#595959" font-family="Calibri,Calibri_MSFontService,sans-serif" font-weight="400" font-size="41" transform="matrix(1 0 0 1 1995.08 844)">30</text></g><g clip-path="url(#clip18)"><text fill="#595959" font-family="Calibri,Calibri_MSFontService,sans-serif" font-weight="400" font-size="41" transform="matrix(1 0 0 1 2207.9 844)">31</text></g><g clip-path="url(#clip19)"><path d="M1370 924 1458 924" stroke="#4472C4" stroke-width="10.3125" stroke-linecap="round" stroke-linejoin="round" stroke-miterlimit="10" fill="none" fill-rule="evenodd"/></g><g clip-path="url(#clip20)"><text fill="#595959" font-family="Yu Gothic,Yu Gothic_MSFontService,sans-serif" font-weight="400" font-size="41" transform="matrix(1 0 0 1 1467.01 936)">最低</text></g><g clip-path="url(#clip21)"><path d="M1588 924 1676 924" stroke="#ED7D31" stroke-width="10.3125" stroke-linecap="round" stroke-linejoin="round" stroke-miterlimit="10" fill="none" fill-rule="evenodd"/></g><g clip-path="url(#clip22)"><text fill="#595959" font-family="Yu Gothic,Yu Gothic_MSFontService,sans-serif" font-weight="400" font-size="41" transform="matrix(1 0 0 1 1685.18 936)">最高</text></g><rect x="736.5" y="0.499836" width="1650" height="990" stroke="#D9D9D9" stroke-width="3.4375" stroke-linejoin="round" stroke-miterlimit="10" fill="none"/></g></svg>