<svg width="1653" height="993" xmlns="http://www.w3.org/2000/svg" xmlns:xlink="http://www.w3.org/1999/xlink" overflow="hidden"><defs><clipPath id="clip0"><rect x="1289" y="200" width="1653" height="993"/></clipPath><clipPath id="clip1"><rect x="1290" y="200" width="1650" height="990"/></clipPath><clipPath id="clip2"><rect x="1290" y="200" width="1650" height="990"/></clipPath><clipPath id="clip3"><rect x="1400" y="250" width="1493" height="732"/></clipPath><clipPath id="clip4"><rect x="1400" y="250" width="1493" height="732"/></clipPath><clipPath id="clip5"><rect x="1290" y="200" width="1650" height="990"/></clipPath><clipPath id="clip6"><rect x="1290" y="200" width="1650" height="990"/></clipPath><clipPath id="clip7"><rect x="1290" y="200" width="1650" height="990"/></clipPath><clipPath id="clip8"><rect x="1290" y="200" width="1650" height="990"/></clipPath><clipPath id="clip9"><rect x="1290" y="200" width="1650" height="990"/></clipPath><clipPath id="clip10"><rect x="1290" y="200" width="1650" height="990"/></clipPath><clipPath id="clip11"><rect x="1290" y="200" width="1650" height="990"/></clipPath><clipPath id="clip12"><rect x="1290" y="200" width="1650" height="990"/></clipPath><clipPath id="clip13"><rect x="1290" y="200" width="1650" height="990"/></clipPath><clipPath id="clip14"><rect x="1290" y="200" width="1650" height="990"/></clipPath><clipPath id="clip15"><rect x="1290" y="200" width="1650" height="990"/></clipPath><clipPath id="clip16"><rect x="1290" y="200" width="1650" height="990"/></clipPath><clipPath id="clip17"><rect x="1290" y="200" width="1650" height="990"/></clipPath><clipPath id="clip18"><rect x="1290" y="200" width="1650" height="990"/></clipPath><clipPath id="clip19"><rect x="1290" y="200" width="1650" height="990"/></clipPath><clipPath id="clip20"><rect x="1290" y="200" width="1650" height="990"/></clipPath><clipPath id="clip21"><rect x="1290" y="200" width="1650" height="990"/></clipPath><clipPath id="clip22"><rect x="1290" y="200" width="1650" height="990"/></clipPath><clipPath id="clip23"><rect x="1290" y="200" width="1650" height="990"/></clipPath></defs><g clip-path="url(#clip0)" transform="translate(-1289 -200)"><rect x="1290" y="201" width="1650" height="990" fill="#FFFFFF"/><g clip-path="url(#clip1)"><path d="M1400.5 875.529 2889.5 875.529M1400.5 771.526 2889.5 771.526M1400.5 667.522 2889.5 667.522M1400.5 563.519 2889.5 563.519M1400.5 459.515 2889.5 459.515M1400.5 354.512 2889.5 354.512M1400.5 250.5 2889.5 250.5" stroke="#D9D9D9" stroke-width="3.4375" stroke-linejoin="round" stroke-miterlimit="10" fill="none"/></g><g clip-path="url(#clip2)"><path d="M1400.5 979.5 2889.5 979.5" stroke="#D9D9D9" stroke-width="3.4375" stroke-linejoin="round" stroke-miterlimit="10" fill="none" fill-rule="evenodd"/></g><g clip-path="url(#clip3)"><path d="M1506 605.02 1719.06 542 1932.06 563.018 2145.07 542 2358.08 667 2570.08 646.021 2783 646.021" stroke="#4472C4" stroke-width="10.3125" stroke-linecap="round" stroke-linejoin="round" stroke-miterlimit="10" fill="none"/></g><g clip-path="url(#clip4)"><path d="M1506 334 1719.06 376.012 1932.06 480.016 2145.07 417.014 2358.08 542 2570.08 501.016 2783 438.014" stroke="#ED7D31" stroke-width="10.3125" stroke-linecap="round" stroke-linejoin="round" stroke-miterlimit="10" fill="none"/></g><g clip-path="url(#clip5)"><text fill="#595959" font-family="Calibri,Calibri_MSFontService,sans-serif" font-weight="400" font-size="41" transform="matrix(1 0 0 1 1340.9 991)">0</text></g><g clip-path="url(#clip6)"><text fill="#595959" font-family="Calibri,Calibri_MSFontService,sans-serif" font-weight="400" font-size="41" transform="matrix(1 0 0 1 1340.9 887)">5</text></g><g clip-path="url(#clip7)"><text fill="#595959" font-family="Calibri,Calibri_MSFontService,sans-serif" font-weight="400" font-size="41" transform="matrix(1 0 0 1 1320 783)">10</text></g><g clip-path="url(#clip8)"><text fill="#595959" font-family="Calibri,Calibri_MSFontService,sans-serif" font-weight="400" font-size="41" transform="matrix(1 0 0 1 1320 679)">15</text></g><g clip-path="url(#clip9)"><text fill="#595959" font-family="Calibri,Calibri_MSFontService,sans-serif" font-weight="400" font-size="41" transform="matrix(1 0 0 1 1320 575)">20</text></g><g clip-path="url(#clip10)"><text fill="#595959" font-family="Calibri,Calibri_MSFontService,sans-serif" font-weight="400" font-size="41" transform="matrix(1 0 0 1 1320 471)">25</text></g><g clip-path="url(#clip11)"><text fill="#595959" font-family="Calibri,Calibri_MSFontService,sans-serif" font-weight="400" font-size="41" transform="matrix(1 0 0 1 1320 367)">30</text></g><g clip-path="url(#clip12)"><text fill="#595959" font-family="Calibri,Calibri_MSFontService,sans-serif" font-weight="400" font-size="41" transform="matrix(1 0 0 1 1320 262)">35</text></g><g clip-path="url(#clip13)"><text fill="#595959" font-family="Calibri,Calibri_MSFontService,sans-serif" font-weight="400" font-size="41" transform="matrix(1 0 0 1 1485.58 1045)">23</text></g><g clip-path="url(#clip14)"><text fill="#595959" font-family="Calibri,Calibri_MSFontService,sans-serif" font-weight="400" font-size="41" transform="matrix(1 0 0 1 1698.39 1045)">24</text></g><g clip-path="url(#clip15)"><text fill="#595959" font-family="Calibri,Calibri_MSFontService,sans-serif" font-weight="400" font-size="41" transform="matrix(1 0 0 1 1911.21 1045)">25</text></g><g clip-path="url(#clip16)"><text fill="#595959" font-family="Calibri,Calibri_MSFontService,sans-serif" font-weight="400" font-size="41" transform="matrix(1 0 0 1 2124.03 1045)">26</text></g><g clip-path="url(#clip17)"><text fill="#595959" font-family="Calibri,Calibri_MSFontService,sans-serif" font-weight="400" font-size="41" transform="matrix(1 0 0 1 2336.85 1045)">27</text></g><g clip-path="url(#clip18)"><text fill="#595959" font-family="Calibri,Calibri_MSFontService,sans-serif" font-weight="400" font-size="41" transform="matrix(1 0 0 1 2549.66 1045)">28</text></g><g clip-path="url(#clip19)"><text fill="#595959" font-family="Calibri,Calibri_MSFontService,sans-serif" font-weight="400" font-size="41" transform="matrix(1 0 0 1 2762.48 1045)">29</text></g><g clip-path="url(#clip20)"><path d="M1924 1124 2012 1124" stroke="#4472C4" stroke-width="10.3125" stroke-linecap="round" stroke-linejoin="round" stroke-miterlimit="10" fill="none" fill-rule="evenodd"/></g><g clip-path="url(#clip21)"><text fill="#595959" font-family="Yu Gothic,Yu Gothic_MSFontService,sans-serif" font-weight="400" font-size="41" transform="matrix(1 0 0 1 2021.59 1137)">最低</text></g><g clip-path="url(#clip22)"><path d="M2142 1124 2230 1124" stroke="#ED7D31" stroke-width="10.3125" stroke-linecap="round" stroke-linejoin="round" stroke-miterlimit="10" fill="none" fill-rule="evenodd"/></g><g clip-path="url(#clip23)"><text fill="#595959" font-family="Yu Gothic,Yu Gothic_MSFontService,sans-serif" font-weight="400" font-size="41" transform="matrix(1 0 0 1 2239.76 1137)">最高</text></g><rect x="1290.5" y="201.5" width="1650" height="990" stroke="#D9D9D9" stroke-width="3.4375" stroke-linejoin="round" stroke-miterlimit="10" fill="none"/></g></svg>